<?xml version="1.0" encoding="UTF-8" standalone="no"?>
<svg width="71px" height="22px" viewBox="0 0 71 22" version="1.1" xmlns="http://www.w3.org/2000/svg" xmlns:xlink="http://www.w3.org/1999/xlink">
    <!-- Generator: Sketch 43.2 (39069) - http://www.bohemiancoding.com/sketch -->
    <title>logo_eelf</title>
    <desc>Created with Sketch.</desc>
    <defs></defs>
    <g id="Welcome" stroke="none" stroke-width="1" fill="none" fill-rule="evenodd">
        <g id="Desktop-HD-Copy-2" transform="translate(-167.000000, -55.000000)" fill="#485670">
            <g id="Menu" transform="translate(111.000000, 45.000000)">
                <path d="M68.8320312,22.0849609 L60.3945312,22.0849609 L60.3945312,27.7978516 L70.296875,27.7978516 L70.296875,31.328125 L56,31.328125 L56,10 L70.2675781,10 L70.2675781,13.5595703 L60.3945312,13.5595703 L60.3945312,18.6425781 L68.8320312,18.6425781 L68.8320312,22.0849609 Z M76.9886068,22.0849609 L85.4261068,22.0849609 L85.4261068,27.7978516 L75.523763,27.7978516 L75.523763,31.328125 L89.820638,31.328125 L89.820638,10 L75.5530599,10 L75.5530599,13.5595703 L85.4261068,13.5595703 L85.4261068,18.6425781 L76.9886068,18.6425781 L76.9886068,22.0849609 Z M99.4420573,27.7978516 L108.773112,27.7978516 L108.773112,31.328125 L95.047526,31.328125 L95.047526,10 L99.4420573,10 L99.4420573,27.7978516 Z M125.832031,22.6123047 L117.394531,22.6123047 L117.394531,31.328125 L113,31.328125 L113,10 L126.886719,10 L126.886719,13.5595703 L117.394531,13.5595703 L117.394531,19.0673828 L125.832031,19.0673828 L125.832031,22.6123047 Z" id="logo_eelf"></path>
            </g>
        </g>
    </g>
</svg>